<!DOCTYPE svg PUBLIC "-//W3C//DTD SVG 20010904//EN" "http://www.w3.org/TR/2001/REC-SVG-20010904/DTD/svg10.dtd">
<svg version="1.0" xmlns="http://www.w3.org/2000/svg" width="894px" height="894px" viewBox="0 0 8940 8940" preserveAspectRatio="xMidYMid meet">
<g id="layer101" fill="#000000" stroke="none">
 <path d="M0 4470 l0 -4470 4470 0 4470 0 0 4470 0 4470 -4470 0 -4470 0 0 -4470z"/>
 </g>
<g id="layer102" fill="#0175c1" stroke="none">
 <path d="M340 6670 l0 -2220 265 0 265 0 0 1100 0 1100 270 0 270 0 0 -285 0 -285 280 0 280 0 2 -1632 3 -1633 293 -3 292 -2 0 820 0 820 240 0 240 0 0 -255 0 -255 280 0 280 0 2 -1127 3 -1128 283 -3 282 -2 0 -815 0 -815 295 0 295 0 0 815 0 815 285 0 285 0 0 1130 0 1130 280 0 280 0 0 255 0 255 240 0 240 0 0 -820 0 -820 295 0 295 0 0 1635 0 1635 283 2 282 3 3 283 2 282 270 0 270 0 0 -1100 0 -1100 260 0 260 0 0 2220 0 2220 -260 0 -260 0 0 -245 0 -245 -285 0 -285 0 0 -285 0 -285 -282 -2 -283 -3 -3 -282 -2 -283 -265 0 -265 0 0 570 0 570 -550 0 -550 0 0 -285 0 -285 -270 0 -270 0 0 530 0 530 -295 0 -295 0 0 -530 0 -530 -270 0 -270 0 0 285 0 285 -547 -2 -548 -3 -3 -567 -2 -568 -265 0 -265 0 0 285 0 285 -285 0 -285 0 0 285 0 285 -280 0 -280 0 0 245 0 245 -265 0 -265 0 0 -2220z"/>
 </g>
<g id="layer103" fill="#2974a5" stroke="none">
 <path d="M340 6670 l0 -2220 265 0 265 0 0 1100 0 1100 270 0 270 0 0 -285 0 -285 280 0 280 0 2 -1632 3 -1633 293 -3 292 -2 0 820 0 820 240 0 240 0 0 -255 0 -255 280 0 280 0 2 -1127 3 -1128 283 -3 282 -2 0 -815 0 -815 295 0 295 0 0 815 0 815 285 0 285 0 0 1130 0 1130 280 0 280 0 0 255 0 255 240 0 240 0 0 -820 0 -820 295 0 295 0 0 1635 0 1635 283 2 282 3 3 283 2 282 270 0 270 0 0 -1100 0 -1100 260 0 260 0 0 2220 0 2220 -260 0 -260 0 0 -245 0 -245 -285 0 -285 0 0 -285 0 -285 -282 -2 -283 -3 -3 -282 -2 -283 -265 0 -265 0 0 570 0 570 -550 0 -550 0 0 -285 0 -285 -270 0 -270 0 0 530 0 530 -295 0 -295 0 0 -530 0 -530 -270 0 -270 0 0 285 0 285 -547 -2 -548 -3 -3 -567 -2 -568 -265 0 -265 0 0 285 0 285 -285 0 -285 0 0 285 0 285 -280 0 -280 0 0 245 0 245 -265 0 -265 0 0 -2220z m2190 -1099 c0 -11 5 -23 10 -26 15 -9 13 -408 -2 -423 -8 -8 -8 -15 2 -27 10 -12 10 -18 0 -30 -7 -9 -10 -27 -7 -45 7 -30 -8 -49 -24 -33 -12 12 -110 5 -124 -8 -13 -13 -282 -11 -290 1 -3 6 -28 10 -55 10 -29 0 -50 5 -53 13 -7 19 -9 551 -1 570 6 15 31 17 275 17 260 0 269 -1 269 -19z m4418 -264 c-3 -304 -6 -317 -54 -317 -12 0 -26 -4 -29 -10 -4 -6 -90 -10 -226 -10 l-219 0 -20 32 c-10 17 -17 35 -14 40 3 5 5 130 4 278 l-1 270 282 0 281 0 -4 -283z m-595 -349 c15 -8 17 -30 17 -243 0 -213 -2 -235 -17 -243 -21 -11 -444 -4 -456 7 -4 4 -6 113 -5 242 l3 234 95 6 c138 8 342 7 363 -3z m-3315 -240 l-3 -243 -235 0 -235 0 -3 243 -2 242 240 0 240 0 -2 -242z"/>
 </g>
<g id="layer104" fill="#da3f3b" stroke="none">
 <path d="M340 6670 l0 -2220 265 0 265 0 0 1100 0 1100 270 0 270 0 0 -285 0 -285 280 0 280 0 0 -240 0 -240 290 0 290 0 0 -315 0 -315 -290 0 -290 0 2 -1077 3 -1078 294 -3 294 -2 -4 1082 -4 1083 225 3 c124 1 236 0 249 -3 l23 -6 -7 -514 -8 -515 282 0 281 0 2 -1127 3 -1128 283 -3 282 -2 0 -815 0 -815 295 0 295 0 0 815 0 815 285 0 285 0 0 1130 0 1130 281 0 282 0 -8 515 -7 515 23 2 c13 1 125 2 249 3 l225 0 3 313 2 312 290 0 290 0 0 240 0 240 283 2 282 3 3 283 2 282 270 0 270 0 0 -1100 0 -1100 260 0 260 0 0 2220 0 2220 -260 0 -260 0 0 -245 0 -245 -285 0 -285 0 0 -285 0 -285 -282 -2 -283 -3 -3 -282 -2 -283 -265 0 -265 0 0 570 0 570 -550 0 -550 0 0 -285 0 -285 -270 0 -270 0 0 530 0 530 -295 0 -295 0 0 -530 0 -530 -270 0 -270 0 0 285 0 285 -547 -2 -548 -3 -3 -567 -2 -568 -265 0 -265 0 0 285 0 285 -285 0 -285 0 0 285 0 285 -280 0 -280 0 0 245 0 245 -265 0 -265 0 0 -2220z"/>
 <path d="M6944 5026 c-3 -7 -4 -17 -3 -22 6 -33 2 -34 -279 -34 l-279 0 -6 -377 c-4 -207 -7 -693 -7 -1080 l0 -703 295 0 295 0 0 1115 c0 613 -2 1115 -5 1115 -3 0 -8 -6 -11 -14z"/>
 </g>
<g id="layer105" fill="#ba4f51" stroke="none">
 <path d="M340 6670 l0 -2220 265 0 265 0 0 1100 0 1100 270 0 270 0 0 -285 0 -285 280 0 280 0 0 -240 0 -240 290 0 290 0 0 -315 0 -315 -290 0 -290 0 2 -1077 3 -1078 294 -3 294 -2 -4 1082 -4 1083 225 3 c124 1 236 0 249 -3 l23 -6 -7 -514 -8 -515 282 0 281 0 2 -1127 3 -1128 283 -3 282 -2 0 -815 0 -815 295 0 295 0 0 815 0 815 285 0 285 0 0 1130 0 1130 281 0 282 0 -8 515 -7 515 23 2 c13 1 125 2 249 3 l225 0 3 313 2 312 290 0 290 0 0 240 0 240 283 2 282 3 3 283 2 282 270 0 270 0 0 -1100 0 -1100 260 0 260 0 0 2220 0 2220 -260 0 -260 0 0 -245 0 -245 -285 0 -285 0 0 -285 0 -285 -282 -2 -283 -3 -3 -282 -2 -283 -265 0 -265 0 0 570 0 570 -550 0 -550 0 0 -285 0 -285 -270 0 -270 0 0 530 0 530 -295 0 -295 0 0 -530 0 -530 -270 0 -270 0 0 285 0 285 -547 -2 -548 -3 -3 -567 -2 -568 -265 0 -265 0 0 285 0 285 -285 0 -285 0 0 285 0 285 -280 0 -280 0 0 245 0 245 -265 0 -265 0 0 -2220z m3217 1713 c-4 -3 -10 -3 -14 0 -3 4 0 7 7 7 7 0 10 -3 7 -7z m1873 3 c0 -3 -5 -8 -12 -12 -7 -4 -8 -3 -4 4 7 12 16 16 16 8z m-1870 -36 c0 -5 -2 -10 -4 -10 -3 0 -8 5 -11 10 -3 6 -1 10 4 10 6 0 11 -4 11 -10z m-1013 -32 c-3 -7 -5 -2 -5 12 0 14 2 19 5 13 2 -7 2 -19 0 -25z m2810 5 c-4 -3 -7 0 -7 7 0 7 3 10 7 7 3 -4 3 -10 0 -14z m-1740 -376 c-1 -67 -3 -9 -3 128 0 138 2 192 3 122 2 -71 2 -183 0 -250z m1700 -39 c-1 -51 -3 -12 -3 87 0 99 2 141 3 93 2 -48 2 -129 0 -180z m-2770 -230 c-1 -90 -3 -17 -3 162 0 179 2 252 3 163 2 -90 2 -236 0 -325z m2803 103 c0 -3 -7 -15 -15 -25 -13 -17 -15 -18 -15 -3 0 9 6 17 13 18 10 0 10 2 0 6 -7 2 -13 9 -13 14 0 4 7 6 15 3 8 -4 15 -9 15 -13z m-1740 -493 c0 -260 -4 -466 -8 -458 -8 16 -5 930 3 930 3 0 5 -213 5 -472z m1727 395 c-4 -3 -7 0 -7 7 0 7 3 10 7 7 3 -4 3 -10 0 -14z m-2170 -340 c-4 -3 -10 -3 -14 0 -3 4 0 7 7 7 7 0 10 -3 7 -7z m-620 -45 c-3 -8 -6 -5 -6 6 -1 11 2 17 5 13 3 -3 4 -12 1 -19z m3840 -15 c-4 -3 -7 0 -7 7 0 7 3 10 7 7 3 -4 3 -10 0 -14z m-3323 -31 c3 -5 -18 -7 -47 -5 -75 6 -81 11 -15 12 31 1 59 -3 62 -7z m2826 -6 c0 -2 -7 -6 -15 -10 -8 -3 -15 -1 -15 4 0 6 7 10 15 10 8 0 15 -2 15 -4z m-2823 -278 c-1 -46 -3 -11 -3 77 0 88 2 125 3 83 2 -42 2 -114 0 -160z m0 -140 c-3 -7 -5 -2 -5 12 0 14 2 19 5 13 2 -7 2 -19 0 -25z m2800 0 c-3 -7 -5 -2 -5 12 0 14 2 19 5 13 2 -7 2 -19 0 -25z m-540 -5 c-4 -3 -7 0 -7 7 0 7 3 10 7 7 3 -4 3 -10 0 -14z m-1775 -35 c-9 -9 -15 -9 -24 0 -9 9 -7 12 12 12 19 0 21 -3 12 -12z m1888 2 c0 -5 -2 -10 -4 -10 -3 0 -8 5 -11 10 -3 6 -1 10 4 10 6 0 11 -4 11 -10z m360 6 c0 -3 -4 -8 -10 -11 -5 -3 -10 -1 -10 4 0 6 5 11 10 11 6 0 10 -2 10 -4z m57 -3 c-4 -3 -10 -3 -14 0 -3 4 0 7 7 7 7 0 10 -3 7 -7z m-2784 -23 c3 -11 1 -20 -4 -20 -5 0 -9 9 -9 20 0 11 2 20 4 20 2 0 6 -9 9 -20z m529 -12 c-7 -7 -12 -8 -12 -2 0 14 12 26 19 19 2 -3 -1 -11 -7 -17z m1768 -4 c0 -2 -9 -4 -20 -4 -11 0 -20 4 -20 9 0 5 9 7 20 4 11 -3 20 -7 20 -9z m-2263 -1 c-4 -3 -10 -3 -14 0 -3 4 0 7 7 7 7 0 10 -3 7 -7z m66 0 c-7 -2 -19 -2 -25 0 -7 3 -2 5 12 5 14 0 19 -2 13 -5z m2264 0 c-4 -3 -10 -3 -14 0 -3 4 0 7 7 7 7 0 10 -3 7 -7z m356 0 c-7 -2 -19 -2 -25 0 -7 3 -2 5 12 5 14 0 19 -2 13 -5z m-386 -10 c-4 -3 -10 -3 -14 0 -3 4 0 7 7 7 7 0 10 -3 7 -7z m-1765 -613 c-2 -16 -6 -30 -8 -30 -2 0 -4 14 -4 30 0 17 4 30 8 30 5 0 7 -13 4 -30z m401 23 c-68 -2 -178 -2 -245 0 -68 1 -13 3 122 3 135 0 190 -2 123 -3z m187 -12 c13 -25 13 -51 0 -51 -5 0 -10 9 -10 19 0 11 -7 27 -16 35 -14 14 -14 16 0 16 8 0 20 -9 26 -19z m933 12 c-68 -2 -178 -2 -245 0 -68 1 -13 3 122 3 135 0 190 -2 123 -3z m-389 -28 c3 -8 1 -15 -4 -15 -6 0 -10 7 -10 15 0 8 2 15 4 15 2 0 6 -7 10 -15z m523 -37 c-3 -8 -6 -5 -6 6 -1 11 2 17 5 13 3 -3 4 -12 1 -19z m-1660 -760 c-1 -139 -2 -26 -2 252 0 278 1 391 2 253 2 -139 2 -367 0 -505z m1130 450 c-1 -57 -3 -11 -3 102 0 113 2 159 3 103 2 -57 2 -149 0 -205z m13 -144 c0 -8 -4 -14 -10 -14 -5 0 -10 9 -10 21 0 11 5 17 10 14 6 -3 10 -13 10 -21z m-543 -21 c-4 -3 -7 0 -7 7 0 7 3 10 7 7 3 -4 3 -10 0 -14z m523 -7 c0 -3 -5 -8 -12 -12 -7 -4 -8 -3 -4 4 7 12 16 16 16 8z m-4047 -83 c-62 -2 -164 -2 -225 0 -62 1 -12 3 112 3 124 0 174 -2 113 -3z m7690 0 c-46 -2 -120 -2 -165 0 -46 1 -9 3 82 3 91 0 128 -2 83 -3z m150 0 c-7 -2 -19 -2 -25 0 -7 3 -2 5 12 5 14 0 19 -2 13 -5z m-7696 -70 c-3 -10 -5 -2 -5 17 0 19 2 27 5 18 2 -10 2 -26 0 -35z m7663 21 c0 -8 -5 -12 -10 -9 -6 4 -8 11 -5 16 9 14 15 11 15 -7z m-7713 -11 c-4 -3 -7 0 -7 7 0 7 3 10 7 7 3 -4 3 -10 0 -14z m-420 -10 c-4 -3 -7 0 -7 7 0 7 3 10 7 7 3 -4 3 -10 0 -14z m-25 -310 c-1 -175 -3 -397 -5 -493 -1 -96 -4 47 -5 318 -1 270 1 492 6 492 4 0 6 -143 4 -317z m8215 -421 c-1 -130 -2 -23 -2 238 0 261 1 368 2 237 2 -130 2 -344 0 -475z m-4930 298 c-3 -42 -17 -37 -17 6 0 20 4 33 10 29 5 -3 8 -19 7 -35z m1653 24 c0 -8 -4 -12 -10 -9 -5 3 -10 10 -10 16 0 5 5 9 10 9 6 0 10 -7 10 -16z m-577 -28 c4 -10 1 -13 -8 -9 -8 3 -12 9 -9 14 7 12 11 11 17 -5z m-445 -15 c3 -8 -1 -12 -9 -9 -7 2 -15 10 -17 17 -3 8 1 12 9 9 7 -2 15 -10 17 -17z m-81 -393 c-3 -7 -5 -2 -5 12 0 14 2 19 5 13 2 -7 2 -19 0 -25z m20 -125 c-4 -3 -10 -3 -14 0 -3 4 0 7 7 7 7 0 10 -3 7 -7z m80 1 c-3 -3 -12 -4 -19 -1 -8 3 -5 6 6 6 11 1 17 -2 13 -5z m406 -1 c-7 -2 -19 -2 -25 0 -7 3 -2 5 12 5 14 0 19 -2 13 -5z m-3853 -13 c-8 -5 -24 -9 -35 -9 -16 1 -16 2 5 9 35 11 48 11 30 0z m7307 -7 c-4 -3 -10 -3 -14 0 -3 4 0 7 7 7 7 0 10 -3 7 -7z m350 1 c-3 -3 -12 -4 -19 -1 -8 3 -5 6 6 6 11 1 17 -2 13 -5z m-6436 -576 c-18 -5 -37 -6 -42 -1 -4 4 11 9 34 10 l42 1 -34 -10z m362 5 c-7 -2 -19 -2 -25 0 -7 3 -2 5 12 5 14 0 19 -2 13 -5z m102 -3 c19 -8 19 -9 -2 -9 -12 -1 -25 4 -28 9 -7 12 2 12 30 0z m-548 -767 c-1 -137 -2 -25 -2 247 0 272 1 384 2 248 2 -137 2 -359 0 -495z m73 -247 c0 -3 -4 -8 -10 -11 -5 -3 -10 -1 -10 4 0 6 5 11 10 11 6 0 10 -2 10 -4z m485 -46 c-3 -5 -14 -10 -23 -9 -14 0 -13 2 3 9 27 11 27 11 20 0z m-182 -7 c-24 -2 -62 -2 -85 0 -24 2 -5 4 42 4 47 0 66 -2 43 -4z"/>
 <path d="M6944 5026 c-3 -7 -4 -17 -3 -22 6 -33 2 -34 -279 -34 l-279 0 -6 -377 c-4 -207 -7 -693 -7 -1080 l0 -703 295 0 295 0 0 1115 c0 613 -2 1115 -5 1115 -3 0 -8 -6 -11 -14z m-11 -1133 c-7 -2 -21 -2 -30 0 -10 3 -4 5 12 5 17 0 24 -2 18 -5z m-541 -730 c2 -182 0 -329 -4 -326 -5 2 -7 232 -6 511 2 279 4 426 5 327 2 -99 4 -329 5 -512z m525 680 c-4 -3 -10 -3 -14 0 -3 4 0 7 7 7 7 0 10 -3 7 -7z m0 -970 c-4 -3 -10 -3 -14 0 -3 4 0 7 7 7 7 0 10 -3 7 -7z m-119 -50 c-42 -2 -114 -2 -160 0 -46 1 -11 3 77 3 88 0 125 -2 83 -3z"/>
 </g>
<g id="layer106" fill="#f43636" stroke="none">
 <path d="M340 7216 c0 -1330 3 -1676 13 -1680 9 -5 9 -7 0 -12 -19 -8 -19 -1037 0 -1052 8 -7 100 -11 261 -10 148 0 243 4 235 9 -11 7 -11 9 -1 9 11 0 13 99 11 520 -1 470 -3 521 -18 530 -14 8 -13 9 7 10 l22 0 0 555 0 555 270 0 270 0 0 -285 0 -285 280 0 280 0 0 -240 0 -240 290 0 290 0 0 -315 0 -315 -290 0 -290 0 0 -530 c0 -339 4 -530 10 -530 6 0 9 -195 9 -542 l0 -543 283 1 283 0 0 1075 0 1074 225 3 c124 1 236 0 249 -3 l23 -6 -7 -514 -8 -515 282 0 281 0 2 -1127 3 -1128 283 -3 282 -2 0 -815 0 -815 295 0 295 0 0 815 0 815 285 0 285 0 0 1130 0 1130 281 0 282 0 -8 515 -7 515 23 2 c13 1 125 2 249 3 l225 0 3 313 2 312 290 0 290 0 0 240 0 240 283 2 282 3 3 283 2 282 270 0 270 0 0 -555 c0 -305 3 -555 8 -555 4 0 7 -242 7 -537 l0 -538 242 0 243 0 2 532 3 532 -30 -5 c-23 -3 -22 -1 8 7 l37 11 0 1674 0 1674 -260 0 -260 0 0 -245 0 -245 -285 0 -285 0 0 -285 0 -285 -282 -2 -283 -3 -3 -282 -2 -282 -268 -3 c-147 -2 -276 -7 -287 -11 -12 -5 -11 -3 3 4 l22 12 -2 566 -3 566 -538 3 -537 2 -10 -26 c-6 -14 -9 -133 -8 -282 2 -254 2 -255 8 -87 l6 170 2 -177 c1 -109 -2 -179 -8 -183 -5 -3 -10 -1 -10 4 0 8 -87 11 -270 11 l-270 0 0 530 0 530 -295 0 -295 0 0 -530 0 -530 -270 0 c-209 0 -270 -3 -270 -12 0 -9 -4 -8 -11 2 -6 10 -9 116 -7 295 l3 280 -520 3 c-540 3 -575 0 -556 -37 5 -9 8 -257 7 -553 0 -317 3 -534 8 -531 5 4 6 0 1 -7 -4 -7 -2 -16 6 -21 11 -7 10 -9 -3 -9 -10 0 -18 5 -18 10 0 6 -97 10 -270 10 l-270 0 0 285 0 285 -285 0 -285 0 0 285 0 285 -280 0 -280 0 0 245 0 245 -265 0 -265 0 0 -1674z m3217 1167 c-4 -3 -10 -3 -14 0 -3 4 0 7 7 7 7 0 10 -3 7 -7z m1873 3 c0 -3 -5 -8 -12 -12 -7 -4 -8 -3 -4 4 7 12 16 16 16 8z m-1870 -36 c0 -5 -2 -10 -4 -10 -3 0 -8 5 -11 10 -3 6 -1 10 4 10 6 0 11 -4 11 -10z m1797 -27 c-4 -3 -7 0 -7 7 0 7 3 10 7 7 3 -4 3 -10 0 -14z m-7 -542 c0 -3 -7 -14 -14 -24 -13 -17 -14 -17 -18 0 -7 26 1 43 18 36 8 -3 14 -8 14 -12z m-1740 -493 c0 -260 -4 -466 -8 -458 -8 16 -5 930 3 930 3 0 5 -213 5 -472z m1707 395 c-4 -3 -7 0 -7 7 0 7 3 10 7 7 3 -4 3 -10 0 -14z m20 0 c-4 -3 -7 0 -7 7 0 7 3 10 7 7 3 -4 3 -10 0 -14z m-2170 -340 c-4 -3 -10 -3 -14 0 -3 4 0 7 7 7 7 0 10 -3 7 -7z m3220 -60 c-4 -3 -7 0 -7 7 0 7 3 10 7 7 3 -4 3 -10 0 -14z m-3323 -31 c3 -5 -18 -7 -47 -5 -75 6 -81 11 -15 12 31 1 59 -3 62 -7z m2826 -6 c0 -2 -7 -6 -15 -10 -8 -3 -15 -1 -15 4 0 6 7 10 15 10 8 0 15 -2 15 -4z m-2823 -278 c-1 -46 -3 -11 -3 77 0 88 2 125 3 83 2 -42 2 -114 0 -160z m1 -150 c-1 -24 1 -49 3 -57 2 -7 0 -15 -6 -17 -8 -3 -13 76 -6 109 4 22 9 1 9 -35z m2799 10 c-3 -7 -5 -2 -5 12 0 14 2 19 5 13 2 -7 2 -19 0 -25z m-540 -5 c-4 -3 -7 0 -7 7 0 7 3 10 7 7 3 -4 3 -10 0 -14z m-1775 -35 c-9 -9 -15 -9 -24 0 -9 9 -7 12 12 12 19 0 21 -3 12 -12z m1888 2 c0 -5 -2 -10 -4 -10 -3 0 -8 5 -11 10 -3 6 -1 10 4 10 6 0 11 -4 11 -10z m360 6 c0 -3 -4 -8 -10 -11 -5 -3 -10 -1 -10 4 0 6 5 11 10 11 6 0 10 -2 10 -4z m57 -3 c-4 -3 -10 -3 -14 0 -3 4 0 7 7 7 7 0 10 -3 7 -7z m-2241 -51 c-10 -10 -29 15 -21 28 6 9 10 8 17 -4 6 -10 7 -20 4 -24z m1744 18 c10 -1 9 -4 -5 -10 -30 -13 -45 -12 -45 4 0 8 8 13 18 11 9 -2 24 -4 32 -5z m520 -5 c0 -8 -8 -15 -17 -14 -11 0 -13 3 -5 6 6 2 10 9 6 14 -3 5 0 9 5 9 6 0 11 -7 11 -15z m-2770 -5 c0 -5 -2 -10 -4 -10 -3 0 -8 5 -11 10 -3 6 -1 10 4 10 6 0 11 -4 11 -10z m60 0 c-19 -13 -30 -13 -30 0 0 6 10 10 23 10 18 0 19 -2 7 -10z m2267 3 c-4 -3 -10 -3 -14 0 -3 4 0 7 7 7 7 0 10 -3 7 -7z m356 0 c-7 -2 -19 -2 -25 0 -7 3 -2 5 12 5 14 0 19 -2 13 -5z m-386 -10 c-4 -3 -10 -3 -14 0 -3 4 0 7 7 7 7 0 10 -3 7 -7z m-1765 -614 c-5 -35 -7 -34 -15 8 -5 24 -3 31 7 27 8 -3 11 -16 8 -35z m595 1 c1 -22 -2 -40 -8 -40 -5 0 -9 9 -9 19 0 11 -7 26 -15 35 -15 15 -14 16 25 25 3 0 6 -17 7 -39z m530 33 c-4 -3 -10 -3 -14 0 -3 4 0 7 7 7 7 0 10 -3 7 -7z m543 -3 c0 -5 -2 -10 -4 -10 -3 0 -8 5 -11 10 -3 6 -1 10 4 10 6 0 11 -4 11 -10z m-1267 -7 c-68 -2 -178 -2 -245 0 -68 1 -13 3 122 3 135 0 190 -2 123 -3z m1120 0 c-68 -2 -178 -2 -245 0 -68 1 -13 3 122 3 135 0 190 -2 123 -3z m-389 -28 c3 -8 1 -15 -4 -15 -6 0 -10 7 -10 15 0 8 2 15 4 15 2 0 6 -7 10 -15z m523 -37 c-3 -8 -6 -5 -6 6 -1 11 2 17 5 13 3 -3 4 -12 1 -19z m-1660 -760 c-1 -139 -2 -26 -2 252 0 278 1 391 2 253 2 -139 2 -367 0 -505z m1130 450 c-1 -57 -3 -11 -3 102 0 113 2 159 3 103 2 -57 2 -149 0 -205z m13 -144 c0 -14 -12 -19 -23 -8 -9 9 4 35 14 28 5 -3 9 -12 9 -20z m-543 -21 c-4 -3 -7 0 -7 7 0 7 3 10 7 7 3 -4 3 -10 0 -14z m73 -7 c0 -2 -11 -6 -25 -8 -13 -3 -22 -1 -19 3 5 9 44 13 44 5z m450 0 c0 -3 -5 -8 -12 -12 -7 -4 -8 -3 -4 4 7 12 16 16 16 8z m-3990 -79 c30 -2 -46 -4 -170 -5 -124 -1 -220 2 -214 6 11 6 252 6 384 -1z m7690 -1 c14 -2 -55 -4 -153 -4 -97 0 -179 3 -181 7 -4 6 286 3 334 -3z m60 -52 c0 -8 -5 -12 -10 -9 -6 4 -8 11 -5 16 9 14 15 11 15 -7z m-7713 -11 c-4 -3 -7 0 -7 7 0 7 3 10 7 7 3 -4 3 -10 0 -14z m-420 -10 c-4 -3 -7 0 -7 7 0 7 3 10 7 7 3 -4 3 -10 0 -14z m-25 -310 c-1 -175 -3 -397 -5 -493 -1 -96 -4 47 -5 318 -1 270 1 492 6 492 4 0 6 -143 4 -317z m4945 -30 c-4 -3 -10 -3 -14 0 -3 4 0 7 7 7 7 0 10 -3 7 -7z m-1661 -96 c-4 -42 -21 -46 -20 -4 2 46 3 49 14 42 5 -3 8 -20 6 -38z m1664 27 c0 -9 -5 -14 -12 -12 -18 6 -21 28 -4 28 9 0 16 -7 16 -16z m-587 -28 c4 -10 1 -13 -8 -9 -8 3 -12 9 -9 14 7 12 11 11 17 -5z m-445 -15 c3 -8 -1 -12 -9 -9 -7 2 -15 10 -17 17 -3 8 1 12 9 9 7 -2 15 -10 17 -17z m1029 -18 c-4 -3 -10 -3 -14 0 -3 4 0 7 7 7 7 0 10 -3 7 -7z m-1110 -375 c-3 -7 -5 -2 -5 12 0 14 2 19 5 13 2 -7 2 -19 0 -25z m14 -131 c-7 -7 -14 -8 -21 -1 -6 6 -2 10 12 11 16 2 18 -1 9 -10z m86 7 c-3 -3 -12 -4 -19 -1 -8 3 -5 6 6 6 11 1 17 -2 13 -5z m406 -1 c-7 -2 -19 -2 -25 0 -7 3 -2 5 12 5 14 0 19 -2 13 -5z m42 -3 c-3 -5 -12 -10 -18 -10 -7 0 -6 4 3 10 19 12 23 12 15 0z m-2655 -581 c8 0 2 -5 -15 -10 -34 -10 -59 -4 -50 12 4 6 17 8 29 5 11 -3 28 -6 36 -7z m343 -6 c-7 -2 -19 -2 -25 0 -7 3 -2 5 12 5 14 0 19 -2 13 -5z m102 -3 c19 -8 19 -9 -2 -9 -12 -1 -25 4 -28 9 -7 12 2 12 30 0z m-475 -1014 c0 -3 -4 -8 -10 -11 -5 -3 -10 -1 -10 4 0 6 5 11 10 11 6 0 10 -2 10 -4z"/>
 <path d="M5323 7773 c4 -3 10 -3 14 0 3 4 0 7 -7 7 -7 0 -10 -3 -7 -7z"/>
 <path d="M2038 3893 c7 -3 16 -2 19 1 4 3 -2 6 -13 5 -11 0 -14 -3 -6 -6z"/>
 <path d="M6947 5029 c-4 -9 -7 -20 -6 -25 6 -33 2 -34 -279 -34 l-279 0 -6 -377 c-9 -512 -9 -683 2 -683 6 0 10 -216 11 -532 0 -292 4 -536 7 -541 3 -6 1 -7 -5 -3 -7 4 -12 3 -12 -2 0 -6 114 -8 288 -7 l287 3 0 534 0 533 -32 -3 c-21 -2 -33 1 -33 8 0 8 9 10 23 7 48 -13 47 -27 45 574 -2 310 -7 557 -11 548z m-30 -1186 c-4 -3 -10 -3 -14 0 -3 4 0 7 7 7 7 0 10 -3 7 -7z m0 -970 c-4 -3 -10 -3 -14 0 -3 4 0 7 7 7 7 0 10 -3 7 -7z"/>
 </g>
<g id="layer107" fill="#d34748" stroke="none">
 <path d="M340 7216 c0 -1330 3 -1676 13 -1680 9 -5 9 -7 0 -12 -19 -8 -19 -1037 0 -1052 18 -15 451 -17 442 -2 -5 8 -67 11 -199 11 -105 0 -204 0 -219 0 l-28 0 1 514 c1 426 4 516 16 526 22 18 442 13 471 -7 13 -8 23 -10 23 -5 0 6 -8 15 -17 20 -16 9 -16 10 5 11 l22 0 0 555 0 555 270 0 270 0 0 -285 0 -285 280 0 280 0 0 -240 0 -240 290 0 290 0 0 -315 0 -315 -290 0 -290 0 0 -530 c0 -369 3 -530 11 -530 6 0 8 -9 4 -20 -3 -11 -1 -28 5 -37 11 -17 11 -17 6 -1 -9 29 33 60 69 51 16 -3 95 -7 175 -8 80 -1 154 -5 165 -9 15 -6 16 -5 6 2 -10 7 9 9 59 7 46 -3 76 -9 82 -17 5 -7 7 224 6 542 l-3 555 225 3 c124 1 236 0 249 -3 l23 -6 -7 -514 -8 -515 282 0 281 0 2 -1127 3 -1128 283 -3 282 -2 0 -815 0 -815 295 0 295 0 0 815 0 815 285 0 285 0 0 1130 0 1130 281 0 282 0 -8 515 -7 515 23 2 c13 1 125 2 249 3 l225 0 3 313 2 312 290 0 290 0 0 240 0 240 283 2 282 3 3 283 2 282 270 0 270 0 0 -555 c0 -305 4 -555 8 -555 4 0 7 -15 6 -32 -1 -18 1 -23 3 -10 3 14 12 22 24 22 11 0 17 5 14 10 -3 6 4 10 17 10 14 0 18 -3 11 -8 -14 -9 351 -7 401 2 l36 7 0 1674 0 1675 -260 0 -260 0 0 -245 0 -245 -285 0 -285 0 0 -285 0 -285 -282 -2 -283 -3 -3 -282 -2 -282 -268 -3 c-147 -2 -276 -7 -287 -11 -12 -5 -11 -3 3 4 l22 12 -2 566 -3 566 -538 3 -537 2 -10 -26 c-6 -14 -9 -134 -8 -282 l2 -257 7 190 c3 105 7 228 8 274 l1 84 45 -5 c25 -3 47 -3 49 1 2 3 221 5 485 3 429 -2 482 -4 488 -18 3 -9 1 -19 -6 -23 -16 -10 -16 -920 0 -1004 7 -32 9 -60 5 -64 -10 -10 -37 -11 -279 -12 -138 -1 -226 -5 -222 -10 3 -5 -4 -12 -15 -16 -19 -6 -20 -15 -20 -191 0 -116 4 -184 10 -184 22 0 9 -37 -17 -47 l-28 -11 25 -1 c18 -1 21 -4 11 -10 -11 -7 -9 -10 8 -16 25 -8 28 -35 4 -35 -15 0 -16 2 -3 10 14 9 5 15 -15 10 -5 -2 -106 -2 -222 -2 -117 1 -213 -2 -213 -6 0 -4 -23 -7 -50 -8 -35 0 -50 3 -50 13 0 7 3 12 8 11 4 0 15 2 25 7 12 5 15 11 7 19 -8 11 -15 898 -7 960 1 10 -5 21 -13 23 -10 3 -11 2 -3 -4 7 -5 9 -14 4 -22 -6 -9 -10 -8 -13 7 -10 35 7 46 31 21 l21 -23 0 32 c0 18 -4 32 -10 32 -5 0 -10 -5 -10 -11 0 -8 -4 -8 -15 1 -8 6 -19 9 -25 5 -5 -3 -10 -1 -10 4 0 8 -87 11 -270 11 l-270 0 0 530 0 530 -295 0 -295 0 0 -530 0 -530 -270 0 c-209 0 -270 -3 -270 -12 0 -9 -4 -8 -10 2 -12 19 -11 71 -10 -497 1 -372 -2 -496 -11 -511 -10 -16 -10 -23 4 -37 9 -9 17 -21 17 -26 0 -12 -17 -12 -24 0 -9 14 -402 14 -428 0 -16 -9 -23 -9 -26 0 -5 14 -32 15 -32 0 0 -8 -4 -8 -14 0 -10 8 -16 9 -21 1 -14 -22 -20 -8 -20 45 0 33 5 59 12 63 8 5 9 13 3 22 -13 21 -13 320 0 320 6 0 10 9 10 20 0 14 -9 21 -32 25 -53 9 -152 13 -320 14 -128 1 -159 4 -172 17 -9 8 -16 11 -16 5 0 -5 7 -17 16 -25 14 -15 14 -16 0 -16 -9 0 -16 5 -16 10 0 6 -97 10 -270 10 l-270 0 0 285 0 285 -285 0 -285 0 0 285 0 285 -280 0 -280 0 0 245 0 245 -265 0 -265 0 0 -1674z m4977 467 c-4 -3 -7 0 -7 7 0 7 3 10 7 7 3 -4 3 -10 0 -14z m10 -860 c-4 -3 -7 0 -7 7 0 7 3 10 7 7 3 -4 3 -10 0 -14z m-1404 -664 c155 0 289 2 297 6 12 4 16 -3 17 -35 1 -22 -2 -40 -8 -40 -5 0 -9 -92 -9 -230 0 -156 3 -230 11 -230 6 0 8 -9 4 -20 -4 -14 -2 -20 9 -20 8 0 18 5 21 10 3 6 16 10 28 9 20 -1 20 -2 -3 -8 -42 -13 78 -24 173 -17 45 4 130 7 189 8 59 1 105 5 102 10 -3 4 0 8 7 8 8 0 9 3 0 13 -6 8 -8 17 -5 20 3 3 5 103 5 221 -2 189 0 216 14 216 8 0 15 7 15 15 0 8 -7 15 -15 15 -25 0 -17 30 11 40 34 13 491 13 499 0 4 -6 6 -240 5 -520 0 -408 2 -510 12 -510 9 0 9 -3 3 -8 -14 -9 -17 -52 -4 -52 5 0 9 -7 9 -15 0 -16 -15 -21 -23 -7 -8 11 -487 3 -487 -9 0 -6 88 -9 243 -9 133 0 246 1 251 0 6 0 2 -6 -8 -13 -13 -10 -81 -12 -282 -12 -146 1 -267 -2 -269 -5 -2 -4 -6 -112 -9 -241 -2 -129 -7 -242 -11 -251 -8 -21 -39 -24 -56 -5 -15 16 -352 14 -357 -2 -2 -6 -10 -11 -18 -11 -30 0 -37 52 -35 263 2 135 -1 207 -8 207 -6 0 -11 -83 -13 -230 -3 -235 -9 -273 -40 -241 -11 10 -10 12 1 9 11 -2 14 9 11 52 -1 30 -3 139 -4 241 -1 155 1 186 13 181 8 -3 12 0 10 7 -3 7 -9 13 -14 14 -6 0 -16 7 -24 14 -8 8 -18 10 -25 5 -6 -5 -123 -8 -259 -7 -137 1 -250 -3 -253 -7 -11 -18 -19 -6 -18 30 0 23 5 36 12 35 15 -4 16 13 2 22 -7 4 -10 185 -10 534 1 290 -2 535 -6 546 -5 13 -4 16 4 11 7 -4 139 -7 295 -7z m844 4 c-4 -3 -10 -3 -14 0 -3 4 0 7 7 7 7 0 10 -3 7 -7z m543 -3 c0 -5 -2 -10 -4 -10 -3 0 -8 5 -11 10 -3 6 -1 10 4 10 6 0 11 -4 11 -10z m-3 -1177 c-4 -3 -10 -3 -14 0 -3 4 0 7 7 7 7 0 10 -3 7 -7z m-562 -503 c-3 -5 -12 -10 -18 -10 -7 0 -6 4 3 10 19 12 23 12 15 0z"/>
 <path d="M3666 6105 c-3 -8 -1 -15 4 -15 6 0 10 7 10 15 0 8 -2 15 -4 15 -2 0 -6 -7 -10 -15z"/>
 <path d="M4780 5643 c0 -13 5 -23 10 -23 13 0 13 11 0 30 -8 12 -10 11 -10 -7z"/>
 <path d="M3673 5045 c2 -19 11 -20 245 -23 159 -1 242 1 242 8 0 6 -84 10 -239 10 -182 0 -241 3 -245 13 -3 6 -5 3 -3 -8z"/>
 <path d="M4776 5044 c-4 -10 -1 -14 6 -12 15 5 23 28 10 28 -5 0 -13 -7 -16 -16z"/>
 <path d="M4645 5030 c3 -5 13 -10 21 -10 8 0 12 5 9 10 -3 6 -13 10 -21 10 -8 0 -12 -4 -9 -10z"/>
 <path d="M2549 8387 c-9 -6 -14 -18 -12 -24 4 -10 8 -9 20 2 12 13 85 15 501 17 268 0 498 0 512 -1 29 -3 42 -19 34 -43 -3 -10 0 -18 6 -18 7 0 10 14 8 38 l-3 37 -525 2 c-401 2 -529 0 -541 -10z"/>
 <path d="M5380 8337 l-25 -10 24 -5 c13 -2 28 1 33 6 15 15 -4 21 -32 9z"/>
 <path d="M2546 8314 c-10 -26 -7 -154 4 -154 6 0 10 35 10 85 0 85 -3 99 -14 69z"/>
 <path d="M5420 7823 c0 -10 5 -25 10 -33 7 -11 10 -7 10 18 0 17 -4 32 -10 32 -5 0 -10 -8 -10 -17z"/>
 <path d="M3547 7814 c-11 -11 -8 -64 3 -64 6 0 13 7 17 16 7 18 -9 58 -20 48z"/>
 <path d="M3555 7285 c0 -220 1 -309 2 -197 2 112 2 292 0 400 -1 108 -2 17 -2 -203z"/>
 <path d="M2541 7420 c1 -55 5 -100 10 -100 5 0 9 45 9 100 0 63 -4 100 -10 100 -7 0 -10 -36 -9 -100z"/>
 <path d="M3060 7350 c0 -5 5 -10 11 -10 5 0 7 5 4 10 -3 6 -8 10 -11 10 -2 0 -4 -4 -4 -10z"/>
 <path d="M5785 7326 c-18 -13 -18 -14 8 -9 15 3 24 9 21 14 -7 12 -7 12 -29 -5z"/>
 <path d="M3055 7260 c3 -5 8 -10 11 -10 3 0 2 5 -1 10 -3 6 -8 10 -11 10 -3 0 -2 -4 1 -10z"/>
 <path d="M5785 7210 c-3 -5 1 -10 9 -10 9 0 16 5 16 10 0 6 -4 10 -9 10 -6 0 -13 -4 -16 -10z"/>
 <path d="M3110 6870 c0 -5 5 -10 11 -10 5 0 7 5 4 10 -3 6 -8 10 -11 10 -2 0 -4 -4 -4 -10z"/>
 <path d="M5415 6870 c-3 -5 1 -10 9 -10 9 0 16 5 16 10 0 6 -4 10 -9 10 -6 0 -13 -4 -16 -10z"/>
 <path d="M5780 6870 c0 -5 5 -10 10 -10 6 0 10 5 10 10 0 6 -4 10 -10 10 -5 0 -10 -4 -10 -10z"/>
 <path d="M3060 6805 c0 -8 5 -15 10 -15 6 0 10 7 10 15 0 8 -4 15 -10 15 -5 0 -10 -7 -10 -15z"/>
 <path d="M5780 6810 c0 -5 5 -10 10 -10 6 0 10 5 10 10 0 6 -4 10 -10 10 -5 0 -10 -4 -10 -10z"/>
 <path d="M3183 6795 c0 -9 4 -14 9 -13 5 2 10 8 10 13 0 5 -5 11 -10 13 -5 1 -9 -4 -9 -13z"/>
 <path d="M3548 6803 c6 -2 9 -10 6 -15 -4 -7 -2 -8 5 -4 13 9 5 26 -12 25 -9 0 -8 -2 1 -6z"/>
 <path d="M5436 6797 c3 -10 9 -15 12 -12 3 3 0 11 -7 18 -10 9 -11 8 -5 -6z"/>
 <path d="M5395 6790 c3 -5 13 -10 21 -10 8 0 12 5 9 10 -3 6 -13 10 -21 10 -8 0 -12 -4 -9 -10z"/>
 <path d="M8560 5515 c0 -8 5 -15 10 -15 6 0 10 7 10 15 0 8 -4 15 -10 15 -5 0 -10 -7 -10 -15z"/>
 <path d="M8565 5478 c-4 -10 -4 -26 0 -35 8 -17 8 -17 12 0 3 9 3 25 0 35 -4 16 -4 16 -12 0z"/>
 <path d="M390 5470 c0 -7 3 -10 7 -7 3 4 3 10 0 14 -4 3 -7 0 -7 -7z"/>
 <path d="M445 5470 c-3 -5 1 -10 9 -10 9 0 16 5 16 10 0 6 -4 10 -9 10 -6 0 -13 -4 -16 -10z"/>
 <path d="M481 5475 c9 -8 319 -12 319 -3 0 4 -73 8 -162 8 -89 0 -159 -2 -157 -5z"/>
 <path d="M8358 5473 c23 -2 59 -2 80 0 20 2 1 4 -43 4 -44 0 -61 -2 -37 -4z"/>
 <path d="M8083 4965 l2 -500 30 -2 c27 -2 28 -2 8 7 l-23 9 0 478 c0 293 -4 484 -10 493 -6 10 -9 -158 -7 -485z"/>
 <path d="M855 4960 c0 -267 1 -376 2 -242 2 133 2 351 0 485 -1 133 -2 24 -2 -243z"/>
 <path d="M6947 5029 c-4 -9 -7 -20 -6 -25 6 -33 2 -34 -279 -34 l-279 0 -6 -377 c-10 -522 -9 -683 3 -683 5 0 7 -15 5 -32 -3 -18 -2 -26 2 -18 15 34 28 36 266 35 132 0 237 3 237 8 0 5 10 7 23 4 48 -13 47 -27 45 574 -2 310 -7 557 -11 548z"/>
 <path d="M8535 4474 l-30 -14 34 3 c19 1 36 8 39 15 5 15 -5 14 -43 -4z"/>
 <path d="M8165 4470 c-4 -7 50 -10 154 -10 101 0 161 4 161 10 0 6 -58 10 -154 10 -93 0 -157 -4 -161 -10z"/>
 <path d="M843 4463 c4 -3 10 -3 14 0 3 4 0 7 -7 7 -7 0 -10 -3 -7 -7z"/>
 <path d="M2030 3896 c0 -2 9 -6 20 -9 11 -3 18 -1 14 4 -5 9 -34 13 -34 5z"/>
 <path d="M6948 3407 c2 -271 -1 -510 -5 -532 -8 -35 -12 -40 -35 -37 -14 2 -29 -2 -33 -7 -4 -7 9 -10 37 -8 l43 2 3 529 c1 292 -1 533 -5 537 -5 5 -7 -213 -5 -484z"/>
 <path d="M2520 3850 c-10 -6 -11 -10 -2 -10 16 0 18 -945 2 -955 -17 -10 -11 -25 10 -25 11 0 20 -7 20 -15 0 -9 -6 -12 -17 -9 -15 5 -15 4 -3 -4 8 -6 18 -8 22 -6 4 3 8 237 8 520 0 535 0 530 -40 504z"/>
 <path d="M6886 3851 c-3 -5 0 -11 7 -14 8 -3 14 1 14 9 0 16 -13 19 -21 5z"/>
 <path d="M6893 2883 c-17 -6 -17 -23 0 -23 8 0 14 7 14 15 0 8 -1 15 -1 14 -1 0 -7 -3 -13 -6z"/>
 <path d="M1980 2870 c0 -7 3 -10 7 -7 3 4 3 10 0 14 -4 3 -7 0 -7 -7z"/>
 <path d="M2400 2870 c0 -5 4 -10 9 -10 6 0 13 5 16 10 3 6 -1 10 -9 10 -9 0 -16 -4 -16 -10z"/>
 <path d="M1982 2839 c4 -11 35 -14 134 -15 l129 -2 -110 8 c-60 4 -121 10 -134 14 -17 6 -22 5 -19 -5z"/>
 <path d="M6387 2843 c-19 -18 1 -23 86 -21 l92 2 -75 3 c-41 2 -79 8 -85 13 -7 6 -15 7 -18 3z"/>
 <path d="M2420 2828 c0 -4 21 -8 48 -7 52 1 48 6 -10 11 -21 2 -38 0 -38 -4z"/>
 </g>
<g id="layer108" fill="#ed3a43" stroke="none">
 <path d="M340 7215 l0 -1675 265 0 265 0 0 555 0 555 270 0 270 0 0 -285 0 -285 280 0 280 0 0 -240 0 -240 290 0 290 0 0 -315 0 -315 -290 0 -290 0 0 -530 0 -530 296 0 296 0 -3 533 -4 532 225 3 c124 1 236 0 249 -3 l23 -6 -7 -514 -8 -515 282 0 281 0 2 -1127 3 -1128 283 -3 282 -2 0 -815 0 -815 295 0 295 0 0 815 0 815 285 0 285 0 0 1130 0 1130 281 0 282 0 -8 515 -7 515 23 2 c13 1 125 2 249 3 l225 0 3 313 2 312 290 0 290 0 0 240 0 240 283 2 282 3 3 283 2 282 270 0 270 0 0 -555 0 -555 260 0 260 0 0 1675 0 1675 -260 0 -260 0 0 -245 0 -245 -285 0 -285 0 0 -285 0 -285 -282 -2 -283 -3 -3 -282 -2 -283 -263 0 c-159 0 -267 -4 -273 -10 -6 -6 -113 -11 -259 -12 l-250 -3 -3 -247 -2 -248 -285 0 -285 0 0 529 c0 291 -3 536 -6 545 -5 14 -39 16 -275 16 l-269 0 0 530 0 530 -295 0 -295 0 0 -530 0 -530 -269 0 c-236 0 -270 -2 -275 -16 -3 -9 -6 -254 -6 -545 l0 -529 -285 0 -285 0 0 250 0 250 -255 0 c-163 0 -255 4 -255 10 0 6 -97 10 -270 10 l-270 0 0 285 0 285 -285 0 -285 0 0 285 0 285 -280 0 -280 0 0 245 0 245 -265 0 -265 0 0 -1675z m3908 -1328 l2 -277 248 2 247 3 3 278 2 277 280 0 280 0 2 -582 c2 -321 1 -589 -1 -595 -2 -10 -71 -13 -280 -15 l-276 -3 -5 -250 -5 -250 -280 0 -280 0 -5 250 -5 250 -277 3 -278 2 0 595 0 595 313 -2 312 -3 3 -278z"/>
 <path d="M3658 6153 c7 -3 16 -2 19 1 4 3 -2 6 -13 5 -11 0 -14 -3 -6 -6z"/>
 <path d="M4168 6153 c7 -3 16 -2 19 1 4 3 -2 6 -13 5 -11 0 -14 -3 -6 -6z"/>
 <path d="M4778 6153 c7 -3 16 -2 19 1 4 3 -2 6 -13 5 -11 0 -14 -3 -6 -6z"/>
 <path d="M5292 6130 c0 -14 2 -19 5 -12 2 6 2 18 0 25 -3 6 -5 1 -5 -13z"/>
 <path d="M3666 6105 c-3 -8 -1 -15 4 -15 6 0 10 7 10 15 0 8 -2 15 -4 15 -2 0 -6 -7 -10 -15z"/>
 <path d="M4770 6095 c0 -8 5 -15 10 -15 6 0 10 7 10 15 0 8 -4 15 -10 15 -5 0 -10 -7 -10 -15z"/>
 <path d="M3630 6090 c0 -7 3 -10 7 -7 3 4 3 10 0 14 -4 3 -7 0 -7 -7z"/>
 <path d="M4224 5860 c0 -129 2 -182 3 -117 2 64 2 170 0 235 -1 64 -3 11 -3 -118z"/>
 <path d="M5295 5600 c0 -267 1 -376 2 -242 2 133 2 351 0 485 -1 133 -2 24 -2 -243z"/>
 <path d="M4760 5670 c0 -7 3 -10 7 -7 3 4 3 10 0 14 -4 3 -7 0 -7 -7z"/>
 <path d="M4780 5643 c0 -13 5 -23 10 -23 13 0 13 11 0 30 -8 12 -10 11 -10 -7z"/>
 <path d="M4230 5600 c0 -5 5 -10 11 -10 5 0 7 5 4 10 -3 6 -8 10 -11 10 -2 0 -4 -4 -4 -10z"/>
 <path d="M4358 5583 c23 -2 59 -2 80 0 20 2 1 4 -43 4 -44 0 -61 -2 -37 -4z"/>
 <path d="M5290 5100 c0 -7 3 -10 7 -7 3 4 3 10 0 14 -4 3 -7 0 -7 -7z"/>
 <path d="M5290 5070 c0 -7 3 -10 7 -7 3 4 3 10 0 14 -4 3 -7 0 -7 -7z"/>
 <path d="M3640 5060 c0 -7 3 -10 7 -7 3 4 3 10 0 14 -4 3 -7 0 -7 -7z"/>
 <path d="M3673 5045 c2 -19 11 -20 245 -23 159 -1 242 1 242 8 0 6 -84 10 -239 10 -182 0 -241 3 -245 13 -3 6 -5 3 -3 -8z"/>
 <path d="M4776 5044 c-4 -10 -1 -14 6 -12 15 5 23 28 10 28 -5 0 -13 -7 -16 -16z"/>
 <path d="M5038 5043 c-152 -2 -238 -7 -238 -13 0 -7 88 -10 251 -10 216 1 249 3 238 16 -6 8 -12 13 -13 12 0 -2 -108 -4 -238 -5z"/>
 <path d="M4645 5030 c3 -5 13 -10 21 -10 8 0 12 5 9 10 -3 6 -13 10 -21 10 -8 0 -12 -4 -9 -10z"/>
 <path d="M4155 5000 c-4 -6 3 -10 14 -10 25 0 27 6 6 13 -8 4 -17 2 -20 -3z"/>
 <path d="M5275 5000 c-3 -5 -2 -10 4 -10 5 0 13 5 16 10 3 6 2 10 -4 10 -5 0 -13 -4 -16 -10z"/>
 <path d="M3663 4993 c9 -2 23 -2 30 0 6 3 -1 5 -18 5 -16 0 -22 -2 -12 -5z"/>
 <path d="M4730 4985 c-7 -9 -11 -18 -8 -20 3 -3 11 1 18 10 7 9 11 18 8 20 -3 3 -11 -1 -18 -10z"/>
 <path d="M4773 4993 c9 -2 25 -2 35 0 9 3 1 5 -18 5 -19 0 -27 -2 -17 -5z"/>
 <path d="M4200 4976 c0 -9 5 -16 10 -16 6 0 10 4 10 9 0 6 -4 13 -10 16 -5 3 -10 -1 -10 -9z"/>
 <path d="M4230 4736 c0 -118 -3 -221 -6 -230 -4 -12 0 -16 16 -16 19 0 21 3 14 33 -4 17 -7 121 -5 230 2 136 -1 197 -8 197 -8 0 -11 -67 -11 -214z"/>
 <path d="M4718 4565 c-2 -41 0 -75 5 -75 4 0 7 34 7 75 0 41 -2 75 -4 75 -3 0 -6 -34 -8 -75z"/>
 <path d="M4303 4498 c-2 -5 75 -8 171 -8 97 0 176 3 176 8 0 4 -77 7 -171 7 -94 0 -173 -3 -176 -7z"/>
 <path d="M2563 8382 c-10 -6 511 -6 847 1 74 1 -83 4 -350 5 -267 1 -490 -2 -497 -6z"/>
 <path d="M3575 8383 c11 -3 23 -10 27 -17 5 -7 8 -5 8 7 0 12 -7 17 -27 16 -22 -1 -23 -2 -8 -6z"/>
 <path d="M5321 8386 c10 -8 89 -13 83 -5 -3 5 -24 9 -46 9 -23 0 -39 -2 -37 -4z"/>
 <path d="M5663 8383 c130 -2 344 -2 475 0 130 1 23 2 -238 2 -261 0 -368 -1 -237 -2z"/>
 <path d="M5314 8270 c0 -58 1 -81 3 -52 2 28 2 76 0 105 -2 28 -3 5 -3 -53z"/>
 <path d="M5380 8337 l-25 -10 24 -5 c13 -2 28 1 33 6 15 15 -4 21 -32 9z"/>
 <path d="M3600 8330 c0 -7 3 -10 7 -7 3 4 3 10 0 14 -4 3 -7 0 -7 -7z"/>
 <path d="M6370 8333 c-4 -168 3 -958 10 -983 5 -21 8 170 9 478 0 323 -3 512 -9 512 -6 0 -10 -3 -10 -7z"/>
 <path d="M2554 8245 c0 -49 1 -71 3 -48 2 23 2 64 0 90 -2 26 -3 8 -3 -42z"/>
 <path d="M5420 7823 c0 -10 5 -25 10 -33 7 -11 10 -7 10 18 0 17 -4 32 -10 32 -5 0 -10 -8 -10 -17z"/>
 <path d="M3547 7814 c-11 -11 -8 -64 3 -64 6 0 13 7 17 16 7 18 -9 58 -20 48z"/>
 <path d="M3600 7810 c0 -7 3 -10 7 -7 3 4 3 10 0 14 -4 3 -7 0 -7 -7z"/>
 <path d="M5320 7814 c0 -5 12 -20 25 -33 l25 -23 0 31 c0 17 -4 31 -10 31 -5 0 -10 -5 -10 -11 0 -8 -5 -8 -15 1 -8 7 -15 9 -15 4z"/>
 <path d="M5333 7738 l-2 -43 9 35 c5 19 5 38 1 43 -4 4 -8 -12 -8 -35z"/>
 <path d="M3555 7285 c0 -220 1 -309 2 -197 2 112 2 292 0 400 -1 108 -2 17 -2 -203z"/>
 <path d="M5335 7265 c0 -231 1 -324 2 -207 2 117 2 306 0 420 -1 114 -2 18 -2 -213z"/>
 <path d="M2554 7420 c0 -58 1 -81 3 -52 2 28 2 76 0 105 -2 28 -3 5 -3 -53z"/>
 <path d="M3060 7350 c0 -5 5 -10 11 -10 5 0 7 5 4 10 -3 6 -8 10 -11 10 -2 0 -4 -4 -4 -10z"/>
 <path d="M5785 7326 c-18 -13 -18 -14 8 -9 15 3 24 9 21 14 -7 12 -7 12 -29 -5z"/>
 <path d="M3055 7260 c3 -5 8 -10 11 -10 3 0 2 5 -1 10 -3 6 -8 10 -11 10 -3 0 -2 -4 1 -10z"/>
 <path d="M6365 7260 c-3 -6 1 -7 9 -4 18 7 21 14 7 14 -6 0 -13 -4 -16 -10z"/>
 <path d="M5888 7253 c6 -2 18 -2 25 0 6 3 1 5 -13 5 -14 0 -19 -2 -12 -5z"/>
 <path d="M6238 7253 c6 -2 18 -2 25 0 6 3 1 5 -13 5 -14 0 -19 -2 -12 -5z"/>
 <path d="M3072 7220 c0 -14 2 -19 5 -12 2 6 2 18 0 25 -3 6 -5 1 -5 -13z"/>
 <path d="M5852 7048 c-1 -104 1 -188 6 -188 4 0 6 64 4 142 -4 229 -8 247 -10 46z"/>
 <path d="M5785 7210 c-3 -5 1 -10 9 -10 9 0 16 5 16 10 0 6 -4 10 -9 10 -6 0 -13 -4 -16 -10z"/>
 <path d="M3110 6870 c0 -5 5 -10 11 -10 5 0 7 5 4 10 -3 6 -8 10 -11 10 -2 0 -4 -4 -4 -10z"/>
 <path d="M5415 6870 c-3 -5 1 -10 9 -10 9 0 16 5 16 10 0 6 -4 10 -9 10 -6 0 -13 -4 -16 -10z"/>
 <path d="M5780 6870 c0 -5 5 -10 10 -10 6 0 10 5 10 10 0 6 -4 10 -10 10 -5 0 -10 -4 -10 -10z"/>
 <path d="M5331 6808 c-1 -30 2 -36 14 -32 10 4 12 10 6 18 -5 6 -11 20 -14 31 -3 12 -5 4 -6 -17z"/>
 <path d="M3071 6804 c0 -11 3 -14 6 -6 3 7 2 16 -1 19 -3 4 -6 -2 -5 -13z"/>
 <path d="M5780 6810 c0 -5 5 -10 10 -10 6 0 10 5 10 10 0 6 -4 10 -10 10 -5 0 -10 -4 -10 -10z"/>
 <path d="M5830 6810 c-13 -8 -13 -10 2 -10 9 0 20 5 23 10 8 13 -5 13 -25 0z"/>
 <path d="M3183 6795 c0 -9 4 -14 9 -13 5 2 10 8 10 13 0 5 -5 11 -10 13 -5 1 -9 -4 -9 -13z"/>
 <path d="M3548 6803 c6 -2 9 -10 6 -15 -4 -7 -2 -8 5 -4 13 9 5 26 -12 25 -9 0 -8 -2 1 -6z"/>
 <path d="M3591 6794 c0 -11 3 -14 6 -6 3 7 2 16 -1 19 -3 4 -6 -2 -5 -13z"/>
 <path d="M5436 6797 c3 -10 9 -15 12 -12 3 3 0 11 -7 18 -10 9 -11 8 -5 -6z"/>
 <path d="M5395 6790 c3 -5 13 -10 21 -10 8 0 12 5 9 10 -3 6 -13 10 -21 10 -8 0 -12 -4 -9 -10z"/>
 <path d="M5843 6783 c4 -3 10 -3 14 0 3 4 0 7 -7 7 -7 0 -10 -3 -7 -7z"/>
 <path d="M5840 6760 c-9 -6 -10 -10 -3 -10 6 0 15 5 18 10 8 12 4 12 -15 0z"/>
 <path d="M3273 6753 c48 -2 125 -2 170 0 45 1 6 3 -88 3 -93 0 -130 -2 -82 -3z"/>
 <path d="M3553 6753 c9 -2 23 -2 30 0 6 3 -1 5 -18 5 -16 0 -22 -2 -12 -5z"/>
 <path d="M5518 6753 c45 -2 119 -2 165 0 45 1 8 3 -83 3 -91 0 -128 -2 -82 -3z"/>
 <path d="M354 5518 c-4 -7 -3 -8 4 -4 7 4 12 9 12 12 0 8 -9 4 -16 -8z"/>
 <path d="M8098 5523 c7 -3 16 -2 19 1 4 3 -2 6 -13 5 -11 0 -14 -3 -6 -6z"/>
 <path d="M8483 5523 c4 -3 10 -3 14 0 3 4 0 7 -7 7 -7 0 -10 -3 -7 -7z"/>
 <path d="M8560 5510 c0 -7 3 -10 7 -7 3 4 3 10 0 14 -4 3 -7 0 -7 -7z"/>
 <path d="M350 5490 c0 -7 3 -10 7 -7 3 4 3 10 0 14 -4 3 -7 0 -7 -7z"/>
 <path d="M390 5470 c0 -7 3 -10 7 -7 3 4 3 10 0 14 -4 3 -7 0 -7 -7z"/>
 <path d="M445 5470 c-3 -5 1 -10 9 -10 9 0 16 5 16 10 0 6 -4 10 -9 10 -6 0 -13 -4 -16 -10z"/>
 <path d="M481 5475 c9 -8 319 -12 319 -3 0 4 -73 8 -162 8 -89 0 -159 -2 -157 -5z"/>
 <path d="M8358 5473 c23 -2 59 -2 80 0 20 2 1 4 -43 4 -44 0 -61 -2 -37 -4z"/>
 <path d="M8562 5460 c0 -14 2 -19 5 -12 2 6 2 18 0 25 -3 6 -5 1 -5 -13z"/>
 <path d="M8092 4965 c-2 -497 -1 -506 37 -504 11 0 10 3 -4 8 -20 8 -20 20 -25 492 l-5 484 -3 -480z"/>
 <path d="M6944 5026 c-3 -7 -4 -17 -3 -22 6 -33 2 -34 -279 -34 l-279 0 -6 -377 c-4 -207 -7 -445 -7 -530 l0 -153 295 0 295 0 0 565 c0 311 -2 565 -5 565 -3 0 -8 -6 -11 -14z"/>
 <path d="M370 4480 c-11 -7 -6 -10 20 -10 26 0 31 3 20 10 -8 5 -17 10 -20 10 -3 0 -12 -5 -20 -10z"/>
 <path d="M8535 4475 c-16 -8 -23 -14 -14 -15 8 0 24 7 35 15 23 18 18 18 -21 0z"/>
 <path d="M543 4473 c48 -2 125 -2 170 0 45 1 6 3 -88 3 -93 0 -130 -2 -82 -3z"/>
 <path d="M8248 4473 c46 -2 118 -2 160 0 42 1 5 3 -83 3 -88 0 -123 -2 -77 -3z"/>
 <path d="M1990 3880 c0 -7 3 -10 7 -7 3 4 3 10 0 14 -4 3 -7 0 -7 -7z"/>
 <path d="M2403 3883 c4 -3 10 -3 14 0 3 4 0 7 -7 7 -7 0 -10 -3 -7 -7z"/>
 <path d="M6942 3855 c0 -16 2 -22 5 -12 2 9 2 23 0 30 -3 6 -5 -1 -5 -18z"/>
 <path d="M6380 3860 c0 -7 3 -10 7 -7 3 4 3 10 0 14 -4 3 -7 0 -7 -7z"/>
 <path d="M1990 3850 c0 -7 3 -10 7 -7 3 4 3 10 0 14 -4 3 -7 0 -7 -7z"/>
 <path d="M2520 3850 c-10 -6 -11 -10 -2 -10 16 0 18 -945 2 -955 -17 -10 -11 -25 10 -25 20 0 20 5 20 500 0 275 -4 500 -8 500 -4 0 -14 -5 -22 -10z"/>
 <path d="M6886 3851 c-3 -5 0 -11 7 -14 8 -3 14 1 14 9 0 16 -13 19 -21 5z"/>
 <path d="M6893 2883 c-17 -6 -17 -23 0 -23 8 0 14 7 14 15 0 8 -1 15 -1 14 -1 0 -7 -3 -13 -6z"/>
 <path d="M6938 2860 c-3 -16 -1 -30 4 -30 4 0 8 14 8 30 0 17 -2 30 -4 30 -2 0 -6 -13 -8 -30z"/>
 <path d="M2400 2870 c0 -5 4 -10 9 -10 6 0 13 5 16 10 3 6 -1 10 -9 10 -9 0 -16 -4 -16 -10z"/>
 <path d="M1999 2837 c5 -5 21 -7 37 -5 27 3 26 4 -8 9 -22 3 -34 1 -29 -4z"/>
 <path d="M6395 2840 c3 -5 8 -10 11 -10 3 0 2 5 -1 10 -3 6 -8 10 -11 10 -3 0 -2 -4 1 -10z"/>
 <path d="M2523 2833 c4 -3 10 -3 14 0 3 4 0 7 -7 7 -7 0 -10 -3 -7 -7z"/>
 <path d="M6888 2833 c6 -2 18 -2 25 0 6 3 1 5 -13 5 -14 0 -19 -2 -12 -5z"/>
 </g>
<g id="layer109" fill="#f3e2e1" stroke="none">
 <path d="M340 7215 l0 -1675 265 0 265 0 0 555 0 555 270 0 270 0 0 -285 0 -285 280 0 280 0 0 -240 0 -240 290 0 290 0 0 -315 0 -315 -290 0 -290 0 0 -530 0 -530 296 0 296 0 -3 533 -4 532 225 3 c124 1 236 0 249 -3 l23 -6 -7 -514 -8 -515 282 0 281 0 2 -1127 3 -1128 283 -3 282 -2 0 -815 0 -815 295 0 295 0 0 815 0 815 285 0 285 0 0 1130 0 1130 281 0 282 0 -8 515 -7 515 23 2 c13 1 125 2 249 3 l225 0 3 313 2 312 290 0 290 0 0 240 0 240 283 2 282 3 3 283 2 282 270 0 270 0 0 -555 0 -555 260 0 260 0 0 1675 0 1675 -260 0 -260 0 0 -245 0 -245 -285 0 -285 0 0 -285 0 -285 -282 -2 -283 -3 -3 -282 -2 -283 -263 0 c-159 0 -267 -4 -273 -10 -6 -6 -113 -11 -259 -12 l-250 -3 -3 -247 -2 -248 -285 0 -285 0 0 529 c0 291 -3 536 -6 545 -5 14 -39 16 -275 16 l-269 0 0 530 0 530 -295 0 -295 0 0 -530 0 -530 -269 0 c-236 0 -270 -2 -275 -16 -3 -9 -6 -254 -6 -545 l0 -529 -285 0 -285 0 0 250 0 250 -255 0 c-163 0 -255 4 -255 10 0 6 -97 10 -270 10 l-270 0 0 285 0 285 -285 0 -285 0 0 285 0 285 -280 0 -280 0 0 245 0 245 -265 0 -265 0 0 -1675z m3908 -1328 l2 -277 248 2 247 3 3 278 2 277 280 0 280 0 2 -582 c2 -321 1 -589 -1 -595 -2 -10 -71 -13 -280 -15 l-276 -3 -5 -250 -5 -250 -280 0 -280 0 -5 250 -5 250 -277 3 -278 2 0 595 0 595 313 -2 312 -3 3 -278z"/>
 <path d="M6944 5026 c-3 -7 -4 -17 -3 -22 6 -33 2 -34 -279 -34 l-279 0 -6 -377 c-4 -207 -7 -445 -7 -530 l0 -153 295 0 295 0 0 565 c0 311 -2 565 -5 565 -3 0 -8 -6 -11 -14z"/>
 </g>
<g id="layer110" fill="#dbeff3" stroke="none">
 <path d="M340 7228 l0 -1663 265 -4 265 -4 0 546 0 546 253 3 c140 2 261 2 270 0 15 -3 17 -31 17 -288 l0 -284 280 0 280 0 1 -212 c1 -117 0 -225 -1 -240 l-2 -28 291 0 291 0 0 -315 0 -315 -290 0 -290 0 0 -526 c0 -355 3 -523 10 -519 6 4 139 6 296 5 l286 -1 -3 523 -4 523 225 3 c124 1 236 0 249 -3 l23 -6 -7 -514 -8 -515 282 0 281 0 1 -1102 c1 -607 2 -1114 2 -1128 l2 -25 283 -3 282 -2 0 -815 0 -815 295 0 295 0 0 815 0 815 285 0 285 0 0 1130 0 1130 263 1 c144 1 270 1 280 0 16 -2 17 14 17 223 0 223 -4 271 -21 244 -6 -9 -9 -7 -9 9 0 14 5 21 13 18 9 -4 11 52 9 265 l-3 270 23 2 c13 1 124 2 248 3 l225 0 3 313 2 312 290 0 290 0 0 240 0 240 283 2 282 3 1 25 c1 14 2 141 3 283 l1 257 270 0 270 0 0 -543 0 -542 157 -3 c86 -2 203 -1 260 3 l103 7 0 1659 0 1659 -260 0 -260 0 0 -245 0 -245 -285 0 -285 0 0 -285 0 -285 -282 -2 -283 -3 -3 -282 c-2 -261 -4 -283 -20 -283 -9 -1 -126 0 -259 0 -204 1 -243 -2 -243 -14 0 -7 -7 -17 -16 -20 -9 -3 -123 -6 -255 -6 l-239 0 0 -193 c0 -140 3 -196 12 -205 10 -10 10 -15 -1 -21 -8 -5 -12 -19 -9 -34 10 -52 10 -52 -292 -53 -319 -2 -318 -2 -322 73 -1 23 3 48 10 55 8 10 8 18 1 25 -6 6 -9 173 -7 480 2 259 0 469 -4 466 -5 -2 -8 1 -8 6 0 8 -84 11 -260 11 l-260 0 0 530 0 530 -295 0 -295 0 0 -530 0 -530 -245 0 c-189 0 -245 -3 -245 -12 0 -9 -3 -8 -10 2 -5 8 -13 11 -17 6 -4 -4 -10 -251 -13 -548 -5 -490 -7 -541 -22 -552 -12 -9 -92 -13 -282 -15 -256 -2 -265 -2 -285 18 -20 20 -21 32 -21 256 l0 236 -245 -1 c-201 -1 -248 1 -260 13 -8 8 -11 17 -8 21 4 3 -111 6 -255 6 l-262 0 0 285 0 285 -285 0 -285 0 0 285 0 285 -280 0 -280 0 0 244 0 245 -265 1 -265 1 0 -1663z m3307 -995 c-4 -3 -10 -3 -14 0 -3 4 0 7 7 7 7 0 10 -3 7 -7z m530 0 c-4 -3 -10 -3 -14 0 -3 4 0 7 7 7 7 0 10 -3 7 -7z m618 -3 c3 -5 1 -10 -4 -10 -6 0 -11 5 -11 10 0 6 2 10 4 10 3 0 8 -4 11 -10z m642 -27 c-4 -3 -10 -3 -14 0 -3 4 0 7 7 7 7 0 10 -3 7 -7z m-1177 -29 c6 -14 10 -137 10 -274 0 -188 3 -251 13 -257 6 -4 110 -9 230 -11 l219 -3 -4 275 c-3 268 -2 275 17 280 38 11 556 6 576 -4 19 -11 19 -26 19 -598 -1 -525 -3 -588 -17 -604 -15 -16 -39 -18 -272 -18 -141 0 -262 -4 -269 -8 -10 -7 -12 -61 -10 -246 l3 -237 -35 -10 c-40 -12 -564 -9 -576 4 -4 4 -2 13 4 19 9 9 12 77 12 235 0 214 -1 223 -20 233 -14 7 -107 11 -276 9 -218 -1 -258 1 -271 14 -13 13 -15 88 -14 603 2 397 5 592 13 601 8 10 83 13 317 16 168 1 309 3 314 5 4 1 12 -10 17 -24z m1180 -43 c0 -6 -4 -13 -10 -16 -5 -3 -10 1 -10 9 0 9 5 16 10 16 6 0 10 -4 10 -9z m-750 -44 c0 -5 -4 -5 -10 -2 -5 3 -10 14 -10 23 0 15 2 15 10 2 5 -8 10 -19 10 -23z m3475 -497 c-3 -5 -10 -10 -16 -10 -5 0 -9 5 -9 10 0 6 7 10 16 10 8 0 12 -4 9 -10z m-1818 -532 c-3 -8 -6 -5 -6 6 -1 11 2 17 5 13 3 -3 4 -12 1 -19z m-432 -28 c-3 -5 -11 -10 -16 -10 -6 0 -7 5 -4 10 3 6 11 10 16 10 6 0 7 -4 4 -10z m-475 -25 c0 -8 -4 -15 -10 -15 -5 0 -10 7 -10 15 0 8 5 15 10 15 6 0 10 -7 10 -15z m865 5 c-3 -5 -13 -10 -21 -10 -8 0 -14 5 -14 10 0 6 9 10 21 10 11 0 17 -4 14 -10z m-1558 -607 c-4 -3 -10 -3 -14 0 -3 4 0 7 7 7 7 0 10 -3 7 -7z m1083 -73 c0 -5 -2 -10 -4 -10 -3 0 -8 5 -11 10 -3 6 -1 10 4 10 6 0 11 -4 11 -10z"/>
 <path d="M6947 5029 c-4 -9 -7 -20 -6 -25 6 -33 2 -34 -281 -34 l-280 0 0 -132 c0 -73 -3 -306 -7 -518 -6 -374 -5 -386 13 -387 66 -3 567 -3 570 0 2 2 3 253 2 558 -2 305 -7 547 -11 538z"/>
 </g>
<g id="layer111" fill="#e5edef" stroke="none">
 <path d="M340 7228 l0 -1663 265 -4 265 -4 0 546 0 546 253 3 c140 2 261 2 270 0 15 -3 17 -31 17 -288 l0 -284 280 0 280 0 1 -212 c1 -117 1 -221 0 -230 -1 -10 3 -18 8 -18 6 0 11 5 11 10 0 7 97 9 280 8 237 -3 282 -5 290 -18 6 -9 10 -146 10 -322 l0 -308 229 0 c188 0 231 3 241 15 9 11 16 12 30 3 17 -11 21 -31 7 -44 -4 -4 -7 -115 -7 -246 0 -203 2 -239 15 -244 8 -4 15 -11 15 -17 0 -6 -3 -7 -7 -4 -3 4 -13 -2 -20 -13 -8 -11 -19 -18 -24 -15 -5 4 -9 -90 -9 -239 l0 -246 280 0 280 0 1 -1102 c1 -607 2 -1114 2 -1128 l2 -25 283 -3 282 -2 0 -815 0 -815 295 0 295 0 0 815 0 815 285 0 285 0 0 1130 0 1130 263 1 c144 1 270 1 280 0 16 -2 17 14 17 223 0 223 -4 271 -21 244 -6 -9 -9 -7 -9 9 0 17 4 21 18 16 14 -5 13 -3 -3 10 -19 15 -20 26 -18 278 2 144 5 265 9 268 3 3 88 4 189 2 l184 -3 -2 28 c-1 20 3 29 13 29 10 0 14 -8 12 -27 -3 -27 -2 -28 42 -26 30 2 46 7 46 15 0 7 -5 13 -12 13 -6 0 -4 8 6 19 10 11 17 28 16 38 -1 10 -2 132 -1 271 1 231 3 253 19 259 9 4 22 12 27 19 7 10 73 14 263 16 138 2 252 0 252 -4 0 -5 9 -8 20 -8 19 0 20 7 20 225 l0 225 283 2 282 3 1 25 c1 14 2 141 3 283 l1 257 270 0 270 0 0 -543 0 -542 157 -3 c86 -2 203 -1 260 3 l103 7 0 1659 0 1659 -260 0 -260 0 0 -245 0 -245 -285 0 -285 0 0 -285 0 -285 -282 -2 -283 -3 -3 -282 c-2 -261 -4 -283 -20 -283 -9 -1 -126 0 -259 0 -204 1 -243 -2 -243 -14 0 -7 -7 -17 -16 -20 -9 -3 -123 -6 -255 -6 l-239 0 0 -193 c0 -140 3 -196 12 -205 10 -10 10 -15 -1 -21 -8 -5 -12 -19 -9 -34 10 -52 10 -52 -292 -53 -248 -1 -283 0 -301 15 -20 16 -21 25 -22 538 -1 287 0 520 3 518 3 -2 6 5 6 15 0 10 -4 16 -8 14 -4 -3 -8 0 -8 5 0 8 -84 11 -260 11 l-260 0 0 530 0 530 -295 0 -295 0 0 -530 0 -530 -245 0 c-189 0 -245 -3 -245 -12 0 -9 -3 -8 -10 2 -5 8 -13 11 -17 6 -4 -4 -10 -251 -13 -548 -5 -490 -7 -541 -22 -552 -12 -9 -92 -13 -282 -15 -256 -2 -265 -2 -285 18 -20 20 -21 32 -21 256 l0 236 -250 -1 c-153 -1 -248 -5 -245 -11 4 -5 1 -9 -5 -9 -7 0 -9 8 -5 20 4 12 2 20 -5 20 -6 0 -8 5 -5 10 4 7 -83 10 -254 10 l-261 0 0 285 0 285 -285 0 -285 0 0 285 0 285 -280 0 -280 0 0 244 0 245 -265 1 -265 1 0 -1663z m1085 592 c3 -5 4 -10 1 -10 -3 0 -8 5 -11 10 -3 6 -4 10 -1 10 3 0 8 -4 11 -10z m2765 6 c0 -3 -5 -8 -12 -12 -7 -4 -8 -3 -4 4 7 12 16 16 16 8z m-523 -33 c-4 -3 -10 -3 -14 0 -3 4 0 7 7 7 7 0 10 -3 7 -7z m-5 -38 c-2 -14 -6 -25 -8 -25 -2 0 -4 11 -4 25 0 14 4 25 9 25 4 0 6 -11 3 -25z m-5 -668 c-1 -111 -2 -17 -2 208 0 226 1 316 2 202 2 -115 2 -299 0 -410z m-1187 128 c0 -8 -7 -15 -15 -15 -8 0 -15 7 -15 15 0 8 7 15 15 15 8 0 15 -7 15 -15z m3927 -12 c-4 -3 -10 -3 -14 0 -3 4 0 7 7 7 7 0 10 -3 7 -7z m-480 -360 c-4 -3 -7 0 -7 7 0 7 3 10 7 7 3 -4 3 -10 0 -14z m-2237 -29 c0 -8 -7 -14 -15 -14 -8 0 -15 9 -15 20 0 13 5 18 15 14 8 -4 15 -12 15 -20z m2237 -46 c-3 -8 -6 -5 -6 6 -1 11 2 17 5 13 3 -3 4 -12 1 -19z m-2270 -535 c-4 -3 -10 -3 -14 0 -3 4 0 7 7 7 7 0 10 -3 7 -7z m530 0 c-4 -3 -10 -3 -14 0 -3 4 0 7 7 7 7 0 10 -3 7 -7z m616 -18 c-6 -17 -63 -21 -63 -5 0 6 11 10 25 10 14 0 25 5 25 11 0 5 4 8 10 4 5 -3 7 -12 3 -20z m622 15 c-3 -5 -13 -10 -21 -10 -8 0 -14 5 -14 10 0 6 9 10 21 10 11 0 17 -4 14 -10z m-1128 -17 c-4 -3 -7 0 -7 7 0 7 3 10 7 7 3 -4 3 -10 0 -14z m1049 6 c9 -16 -10 -31 -30 -23 -13 5 -14 9 -5 20 14 17 25 18 35 3z m-1656 -9 c0 -5 -10 -10 -22 -9 -13 0 -36 -3 -53 -6 -26 -6 -28 -5 -13 7 19 17 88 23 88 8z m540 0 c0 -5 -11 -10 -25 -10 -14 0 -25 5 -25 10 0 6 11 10 25 10 14 0 25 -4 25 -10z m1217 -7 c-4 -3 -10 -3 -14 0 -3 4 0 7 7 7 7 0 10 -3 7 -7z m-1177 -29 c6 -14 10 -137 10 -274 0 -188 3 -251 13 -257 6 -4 110 -9 230 -11 l219 -3 -4 275 c-3 268 -2 275 17 280 38 11 556 6 576 -4 19 -11 19 -26 19 -598 -1 -525 -3 -588 -17 -604 -15 -16 -39 -18 -272 -18 -141 0 -262 -4 -269 -8 -10 -7 -12 -61 -10 -246 l3 -237 -35 -10 c-40 -12 -564 -9 -576 4 -4 4 -2 13 4 19 9 9 12 77 12 235 0 214 -1 223 -20 233 -14 7 -107 11 -276 9 -218 -1 -258 1 -271 14 -13 13 -15 88 -14 603 2 397 5 592 13 601 8 10 83 13 317 16 168 1 309 3 314 5 4 1 12 -10 17 -24z m400 2 c0 -3 -4 -8 -10 -11 -5 -3 -10 -1 -10 4 0 6 5 11 10 11 6 0 10 -2 10 -4z m760 -10 c0 -18 -47 -49 -61 -40 -7 4 -2 15 12 30 25 27 49 32 49 10z m-1887 -540 c1 -284 -1 -516 -5 -516 -5 0 -8 235 -8 522 0 287 3 519 6 515 3 -3 7 -238 7 -521z m1187 493 c0 -10 -4 -19 -10 -19 -5 0 -10 12 -10 26 0 14 4 23 10 19 6 -3 10 -15 10 -26z m720 12 c0 -6 -4 -13 -10 -16 -5 -3 -10 1 -10 9 0 9 5 16 10 16 6 0 10 -4 10 -9z m-750 -44 c0 -5 -4 -5 -10 -2 -5 3 -10 14 -10 23 0 15 2 15 10 2 5 -8 10 -19 10 -23z m-395 14 c3 -5 1 -12 -5 -16 -5 -3 -10 1 -10 9 0 18 6 21 15 7z m365 -12 c0 -5 -4 -9 -10 -9 -5 0 -10 7 -10 16 0 8 5 12 10 9 6 -3 10 -10 10 -16z m775 1 c3 -5 -3 -10 -15 -10 -12 0 -18 5 -15 10 3 6 10 10 15 10 5 0 12 -4 15 -10z m-758 -336 c-3 -3 -12 -4 -19 -1 -8 3 -5 6 6 6 11 1 17 -2 13 -5z m-2647 -44 c0 -5 -9 -10 -20 -10 -11 0 -20 5 -20 10 0 6 9 10 20 10 11 0 20 -4 20 -10z m2285 -40 c3 -5 -3 -10 -14 -10 -12 0 -21 5 -21 10 0 6 6 10 14 10 8 0 18 -4 21 -10z m365 -20 c0 -5 -9 -10 -20 -10 -11 0 -20 5 -20 10 0 6 9 10 20 10 11 0 20 -4 20 -10z m-4300 -54 c0 -3 -4 -8 -10 -11 -5 -3 -10 -1 -10 4 0 6 5 11 10 11 6 0 10 -2 10 -4z m7751 -8 c0 -10 2 -10 6 0 2 6 12 12 21 12 15 -1 14 -3 -2 -15 -25 -19 -46 -19 -46 0 0 18 20 20 21 3z m439 2 c0 -5 -4 -10 -10 -10 -5 0 -10 5 -10 10 0 6 5 10 10 10 6 0 10 -4 10 -10z m-292 -17 c-21 -2 -55 -2 -75 0 -21 2 -4 4 37 4 41 0 58 -2 38 -4z m-1941 -370 c-1 -43 -3 -8 -3 77 0 85 2 120 3 78 2 -43 2 -113 0 -155z m-14 -118 c-4 -15 -36 -12 -41 3 -3 9 3 13 19 10 13 -1 23 -7 22 -13z m-405 -6 c-6 -17 -96 -50 -103 -39 -14 23 27 48 78 49 17 1 27 -4 25 -10z m429 -21 c-3 -8 -6 -5 -6 6 -1 11 2 17 5 13 3 -3 4 -12 1 -19z m-2757 -3 c0 -8 -7 -15 -15 -15 -8 0 -15 7 -15 15 0 8 7 15 15 15 8 0 15 -7 15 -15z m-53 -2 c-4 -3 -10 -3 -14 0 -3 4 0 7 7 7 7 0 10 -3 7 -7z m1890 0 c-4 -3 -10 -3 -14 0 -3 4 0 7 7 7 7 0 10 -3 7 -7z m488 -23 c-3 -5 -11 -10 -16 -10 -6 0 -7 5 -4 10 3 6 11 10 16 10 6 0 7 -4 4 -10z m-519 -11 c10 -17 -13 -36 -27 -22 -12 12 -4 33 11 33 5 0 12 -5 16 -11z m44 -14 c0 -8 -4 -15 -10 -15 -5 0 -10 7 -10 15 0 8 5 15 10 15 6 0 10 -7 10 -15z m336 -22 c-11 -11 -19 6 -11 24 8 17 8 17 12 0 3 -10 2 -21 -1 -24z m529 27 c-3 -5 -13 -10 -21 -10 -8 0 -14 5 -14 10 0 6 9 10 21 10 11 0 17 -4 14 -10z m-2755 -20 c0 -5 -7 -10 -15 -10 -8 0 -15 5 -15 10 0 6 7 10 15 10 8 0 15 -4 15 -10z m45 -20 c3 -5 1 -10 -4 -10 -6 0 -11 5 -11 10 0 6 2 10 4 10 3 0 8 -4 11 -10z m-475 -250 c0 -153 -4 -240 -10 -240 -6 0 -10 87 -10 240 0 153 4 240 10 240 6 0 10 -87 10 -240z m2707 -192 c-2 -24 -4 -7 -4 37 0 44 2 63 4 43 2 -21 2 -57 0 -80z m-1027 -83 c0 -8 -9 -15 -19 -15 -24 0 -36 16 -19 23 24 10 38 7 38 -8z m-604 -10 c-19 -14 -36 -12 -36 6 0 5 12 9 28 9 26 -1 26 -1 8 -15z m489 -5 c-3 -5 -15 -10 -26 -10 -10 0 -19 5 -19 10 0 6 12 10 26 10 14 0 23 -4 19 -10z m1125 -5 c0 -8 -2 -15 -4 -15 -2 0 -6 7 -10 15 -3 8 -1 15 4 15 6 0 10 -7 10 -15z m-1063 -22 c-4 -3 -10 -3 -14 0 -3 4 0 7 7 7 7 0 10 -3 7 -7z m1126 -22 c4 -1 7 -10 7 -21 0 -17 -3 -19 -19 -11 -25 14 -35 40 -13 36 9 -2 20 -4 25 -4z m-93 -51 c0 -5 -4 -10 -10 -10 -5 0 -10 5 -10 10 0 6 5 10 10 10 6 0 10 -4 10 -10z m50 0 c0 -5 -2 -10 -4 -10 -3 0 -8 5 -11 10 -3 6 -1 10 4 10 6 0 11 -4 11 -10z m-2165 -2580 c3 -5 4 -10 1 -10 -3 0 -8 5 -11 10 -3 6 -4 10 -1 10 3 0 8 -4 11 -10z"/>
 <path d="M5290 6854 c0 -8 5 -12 10 -9 6 4 8 11 5 16 -9 14 -15 11 -15 -7z"/>
 <path d="M6943 5613 c4 -3 10 -3 14 0 3 4 0 7 -7 7 -7 0 -10 -3 -7 -7z"/>
 <path d="M6948 4968 c-7 -17 -29 -18 -271 -18 l-264 0 -7 -61 c-3 -34 -6 -144 -6 -244 0 -146 -3 -185 -14 -194 -12 -10 -15 -60 -15 -264 -1 -235 0 -253 16 -254 62 -3 566 -3 569 0 2 2 3 240 2 528 -2 288 -6 516 -10 507z m-548 -638 c0 -5 -5 -10 -11 -10 -5 0 -7 5 -4 10 3 6 8 10 11 10 2 0 4 -4 4 -10z m550 -340 c0 -5 -7 -10 -15 -10 -8 0 -15 5 -15 10 0 6 7 10 15 10 8 0 15 -4 15 -10z"/>
 <path d="M1970 4437 c0 -351 3 -516 10 -512 6 4 139 6 295 5 l285 -1 0 251 c0 137 -3 249 -7 248 -31 -6 -58 41 -33 57 6 4 10 93 10 236 0 197 -2 229 -15 229 -13 0 -15 -33 -15 -236 0 -174 -3 -233 -11 -228 -9 5 -10 40 -5 120 3 63 3 166 0 229 l-7 114 -254 3 -253 3 0 -518z m63 -488 c-8 -8 -16 -8 -30 0 -16 9 -14 10 12 11 21 0 26 -3 18 -11z"/>
 </g>

</svg>